<?xml version="1.0" encoding="utf-8"?>
<!-- Generator: Adobe Illustrator 16.0.0, SVG Export Plug-In . SVG Version: 6.00 Build 0)  -->
<!DOCTYPE svg PUBLIC "-//W3C//DTD SVG 1.1//EN" "http://www.w3.org/Graphics/SVG/1.1/DTD/svg11.dtd">
<svg version="1.1" xmlns="http://www.w3.org/2000/svg" xmlns:xlink="http://www.w3.org/1999/xlink" x="0px" y="0px"
	 width="1883.667px" height="948px" viewBox="0 0 1883.667 948" enable-background="new 0 0 1883.667 948" xml:space="preserve">
<g id="Layer_1">
	<g>
		<text transform="matrix(1 0 0 1 833.7871 473.6563)" font-size="34" style="font-family: 'Source Sans Pro', sans-serif;">Pokemon</text>
		<rect x="819.5" y="431.828" fill="none" stroke="#000000" stroke-miterlimit="10" width="168" height="60"/>
	</g>
	<g>
		<text transform="matrix(1 0 0 1 1247.584 473.6563)" font-size="34" style="font-family: 'Source Sans Pro', sans-serif;">moves</text>
		<rect x="1226.625" y="431.828" fill="none" stroke="#000000" stroke-miterlimit="10" width="138" height="60"/>
	</g>
	<g>
		<g>
			<g>
				<line fill="none" stroke="#000000" stroke-miterlimit="10" x1="987.5" y1="461.828" x2="1216.034" y2="461.828"/>
				<g>
					<polygon points="1226.625,461.828 1211.701,467.926 1215.242,461.828 1211.701,455.731 					"/>
				</g>
			</g>
		</g>
		<g>
			<rect x="1081.063" y="444.828" fill="#FFFFFF" width="55" height="30"/>
			<text transform="matrix(1 0 0 1 1090.9316 466.8281)" font-size="23" style="font-family: 'Source Sans Pro', sans-serif;">uses</text>
		</g>
	</g>
	<g>
		<text transform="matrix(1 0 0 1 530.2539 473.6563)" font-size="34" style="font-family: 'Source Sans Pro', sans-serif;">members</text>
		<rect x="510.875" y="431.828" fill="none" stroke="#000000" stroke-miterlimit="10" width="177.5" height="60"/>
	</g>
	<g>
		<g>
			<g>
				<line fill="none" stroke="#000000" stroke-miterlimit="10" x1="687.5" y1="461.828" x2="808.909" y2="461.828"/>
				<g>
					<polygon points="819.5,461.828 804.576,467.926 808.117,461.828 804.576,455.731 					"/>
				</g>
			</g>
		</g>
		<g>
			<rect x="709.607" y="446.828" fill="#FFFFFF" width="80" height="30"/>
			<text transform="matrix(1 0 0 1 716.9839 468.8281)" font-size="21" style="font-family: 'Source Sans Pro', sans-serif;">collects</text>
		</g>
	</g>
	<g>
		<text transform="matrix(1 0 0 1 853.4131 667.5703)" font-size="34" style="font-family: 'Source Sans Pro', sans-serif;">visitors</text>
		<rect x="836" y="625.742" fill="none" stroke="#000000" stroke-miterlimit="10" width="138" height="60"/>
	</g>
	<g>
		<text transform="matrix(1 0 0 1 1061.0732 667.5703)" font-size="34" style="font-family: 'Source Sans Pro', sans-serif;">types</text>
		<rect x="1031.313" y="625.742" fill="none" stroke="#000000" stroke-miterlimit="10" width="138" height="60"/>
	</g>
	<g>
		<text transform="matrix(1 0 0 1 1238.8008 667.5703)" font-size="34" style="font-family: 'Source Sans Pro', sans-serif;">abilities</text>
		<rect x="1216.375" y="625.742" fill="none" stroke="#000000" stroke-miterlimit="10" width="158.5" height="60"/>
	</g>
	<g>
		<text transform="matrix(1 0 0 1 521.1089 667.5703)" font-size="34" style="font-family: 'Source Sans Pro', sans-serif;">comments</text>
		<rect x="503.744" y="625.742" fill="none" stroke="#000000" stroke-miterlimit="10" width="190.969" height="60"/>
		<rect x="496.052" y="618.914" fill="none" stroke="#000000" stroke-miterlimit="10" width="207.146" height="73.828"/>
	</g>
	<g>
		<g>
			<line fill="none" stroke="#000000" stroke-miterlimit="10" x1="599.228" y1="502.419" x2="599.228" y2="608.323"/>
			<g>
				<polygon points="599.228,491.828 593.13,506.752 599.228,503.211 605.325,506.752 				"/>
			</g>
			<g>
				<polygon points="599.228,618.914 593.13,603.99 599.228,607.531 605.325,603.99 				"/>
			</g>
		</g>
	</g>
	<g>
		<rect x="-257.288" y="151.744" fill="#FFFFFF" width="80" height="30"/>
		<text transform="matrix(1 0 0 1 -249.9111 173.7441)" font-size="21" style="font-family: 'Source Sans Pro', sans-serif;">collects</text>
	</g>
	<g>
		<rect x="559.625" y="535.828" fill="#FFFFFF" width="80" height="30"/>
		<text transform="matrix(1 0 0 1 574.0996 557.8281)" font-size="21" style="font-family: 'Source Sans Pro', sans-serif;">writes</text>
	</g>
	<g>
		<g>
			<line fill="none" stroke="#000000" stroke-miterlimit="10" x1="905" y1="502.294" x2="905" y2="625.742"/>
			<g>
				<polygon points="905,491.703 898.902,506.627 905,503.086 911.097,506.627 				"/>
			</g>
		</g>
	</g>
	<g>
		<rect x="865" y="543.785" fill="#FFFFFF" width="80" height="30"/>
		<text transform="matrix(1 0 0 1 869.5942 565.7852)" font-size="21" style="font-family: 'Source Sans Pro', sans-serif;">browses</text>
	</g>
	<g>
		<g>
			<line fill="none" stroke="#000000" stroke-miterlimit="10" x1="710.348" y1="611.102" x2="812.35" y2="499.641"/>
			<g>
				<polygon points="703.198,618.914 717.772,612.021 710.883,610.517 708.776,603.789 				"/>
			</g>
			<g>
				<polygon points="819.5,491.828 813.923,506.955 811.815,500.226 804.927,498.722 				"/>
			</g>
		</g>
	</g>
	<g>
		<rect x="721.349" y="543.785" fill="#FFFFFF" width="80" height="30"/>
		<text transform="matrix(1 0 0 1 720.2632 565.7852)" font-size="21" style="font-family: 'Source Sans Pro', sans-serif;">displayed</text>
	</g>
	<g>
		<g>
			<line fill="none" stroke="#000000" stroke-miterlimit="10" x1="1092.205" y1="618.928" x2="941" y2="491.828"/>
			<g>
				<polygon points="1100.313,625.742 1092.813,611.472 1091.6,618.418 1084.966,620.807 				"/>
			</g>
		</g>
	</g>
	<g>
		<rect x="990.213" y="543.785" fill="#FFFFFF" width="80.001" height="30"/>
		<text transform="matrix(1 0 0 1 980.5078 565.7852)" font-size="21" style="font-family: 'Source Sans Pro', sans-serif;">categorized</text>
	</g>
	<g>
		<g>
			<line fill="none" stroke="#000000" stroke-miterlimit="10" x1="1286.057" y1="621.201" x2="987.5" y2="479.5"/>
			<g>
				<polygon points="1295.625,625.742 1284.758,613.834 1285.342,620.861 1279.528,624.851 				"/>
			</g>
		</g>
	</g>
	<g>
		<rect x="1119.5" y="543.785" fill="#FFFFFF" width="80.001" height="30"/>
		<text transform="matrix(1 0 0 1 1111.043 565.7852)" font-size="21" style="font-family: 'Source Sans Pro', sans-serif;">has passive</text>
	</g>
	<g>
		<ellipse fill="none" stroke="#000000" stroke-miterlimit="10" cx="277.371" cy="323.643" rx="90.745" ry="35.914"/>
		<text transform="matrix(1 0 0 1 229.5459 333.4712)" font-size="34" style="font-family: 'Source Sans Pro', sans-serif;">emails</text>
	</g>
	<g>
		<ellipse fill="none" stroke="#000000" stroke-miterlimit="10" cx="277.371" cy="413.1" rx="90.745" ry="35.914"/>
		<text transform="matrix(1 0 0 1 263.4575 422.9282)" font-size="34" style="font-family: 'Source Sans Pro', sans-serif;">id</text>
	</g>
	<g>
		<ellipse fill="none" stroke="#000000" stroke-miterlimit="10" cx="264.116" cy="510.057" rx="104" ry="35.914"/>
		<text transform="matrix(1 0 0 1 193.4492 519.8848)" font-size="34" style="font-family: 'Source Sans Pro', sans-serif;">password</text>
	</g>
	<g>
		<ellipse fill="none" stroke="#000000" stroke-miterlimit="10" cx="264.116" cy="600.014" rx="104" ry="35.914"/>
		<text transform="matrix(1 0 0 1 191.1812 609.8418)" font-size="34" style="font-family: 'Source Sans Pro', sans-serif;">username</text>
	</g>
	<line fill="none" stroke="#000000" stroke-miterlimit="10" x1="368.116" y1="323.643" x2="510.875" y2="431.828"/>
	<line fill="none" stroke="#000000" stroke-miterlimit="10" x1="368.116" y1="600.014" x2="510.875" y2="491.828"/>
	<line fill="none" stroke="#000000" stroke-miterlimit="10" x1="368.116" y1="510.057" x2="510.875" y2="476.828"/>
	<line fill="none" stroke="#000000" stroke-miterlimit="10" x1="368.116" y1="413.1" x2="510.875" y2="449.014"/>
	<g>
		<ellipse fill="none" stroke="#000000" stroke-miterlimit="10" cx="750.206" cy="902.084" rx="90.745" ry="35.914"/>
		<text transform="matrix(1 0 0 1 736.292 911.9121)" font-size="34" style="font-family: 'Source Sans Pro', sans-serif;">id</text>
	</g>
	<g>
		<ellipse fill="none" stroke="#000000" stroke-miterlimit="10" cx="958.48" cy="902.084" rx="90.745" ry="35.914"/>
		<text transform="matrix(1 0 0 1 916.7568 911.9121)" font-size="34" style="font-family: 'Source Sans Pro', sans-serif;">name</text>
	</g>
	<g>
		<ellipse fill="none" stroke="#000000" stroke-miterlimit="10" cx="1166.755" cy="902.084" rx="90.745" ry="35.914"/>
		<text transform="matrix(1 0 0 1 1117.4004 911.9121)" font-size="34" style="font-family: 'Source Sans Pro', sans-serif;">descrp</text>
	</g>
	<line fill="none" stroke="#000000" stroke-miterlimit="10" x1="1169.313" y1="685.742" x2="1169.313" y2="866.17"/>
	<line fill="none" stroke="#000000" stroke-miterlimit="10" x1="958.48" y1="866.17" x2="1100.313" y2="685.742"/>
	<line fill="none" stroke="#000000" stroke-miterlimit="10" x1="750.206" y1="866.17" x2="1031.313" y2="685.742"/>
	<g>
		<ellipse fill="none" stroke="#000000" stroke-miterlimit="10" cx="1376.371" cy="902.084" rx="90.745" ry="35.914"/>
		<text transform="matrix(1 0 0 1 1334.6484 911.9121)" font-size="34" style="font-family: 'Source Sans Pro', sans-serif;">name</text>
	</g>
	<g>
		<ellipse fill="none" stroke="#000000" stroke-miterlimit="10" cx="1584.646" cy="902.084" rx="90.745" ry="35.914"/>
		<text transform="matrix(1 0 0 1 1570.7324 911.9121)" font-size="34" style="font-family: 'Source Sans Pro', sans-serif;">id</text>
	</g>
	<g>
		<ellipse fill="none" stroke="#000000" stroke-miterlimit="10" cx="1792.921" cy="902.084" rx="90.745" ry="35.914"/>
		<text transform="matrix(1 0 0 1 1743.5664 911.9121)" font-size="34" style="font-family: 'Source Sans Pro', sans-serif;">descrp</text>
	</g>
	<line fill="none" stroke="#000000" stroke-miterlimit="10" x1="1374.875" y1="685.742" x2="1374.875" y2="866.17"/>
	<line fill="none" stroke="#000000" stroke-miterlimit="10" x1="1584.646" y1="866.17" x2="1376.371" y2="655.828"/>
	<line fill="none" stroke="#000000" stroke-miterlimit="10" x1="1792.922" y1="866.17" x2="1374.875" y2="625.742"/>
	<g>
		<ellipse fill="none" stroke="#000000" stroke-miterlimit="10" cx="1786.175" cy="462.065" rx="90.745" ry="35.914"/>
		<text transform="matrix(1 0 0 1 1744.4512 471.8931)" font-size="34" style="font-family: 'Source Sans Pro', sans-serif;">name</text>
	</g>
	<g>
		<ellipse fill="none" stroke="#000000" stroke-miterlimit="10" cx="1786.175" cy="555.427" rx="90.745" ry="35.914"/>
		<text transform="matrix(1 0 0 1 1734.5156 565.2549)" font-size="34" style="font-family: 'Source Sans Pro', sans-serif;">pokeID</text>
	</g>
	<g>
		<ellipse fill="none" stroke="#000000" stroke-miterlimit="10" cx="1786.175" cy="648.788" rx="90.745" ry="35.914"/>
		<text transform="matrix(1 0 0 1 1740.0234 658.6152)" font-size="34" style="font-family: 'Source Sans Pro', sans-serif;">power</text>
	</g>
	<g>
		<ellipse fill="none" stroke="#000000" stroke-miterlimit="10" cx="1786.175" cy="742.149" rx="90.745" ry="35.914"/>
		<text transform="matrix(1 0 0 1 1766.4102 751.9766)" font-size="34" style="font-family: 'Source Sans Pro', sans-serif;">PP</text>
	</g>
	<g>
		<ellipse fill="none" stroke="#000000" stroke-miterlimit="10" cx="1786.175" cy="275.343" rx="90.745" ry="35.914"/>
		<text transform="matrix(1 0 0 1 1745.5488 285.1709)" font-size="34" style="font-family: 'Source Sans Pro', sans-serif;">effect</text>
	</g>
	<g>
		<ellipse fill="none" stroke="#000000" stroke-miterlimit="10" cx="1786.175" cy="368.704" rx="90.745" ry="35.914"/>
		<text transform="matrix(1 0 0 1 1772.2607 378.5322)" font-size="34" style="font-family: 'Source Sans Pro', sans-serif;">id</text>
	</g>
	<g>
		<ellipse fill="none" stroke="#000000" stroke-miterlimit="10" cx="1786.175" cy="181.981" rx="90.745" ry="35.914"/>
		<text transform="matrix(1 0 0 1 1721.1777 191.8096)" font-size="34" style="font-family: 'Source Sans Pro', sans-serif;">accuracy</text>
	</g>
	<line fill="none" stroke="#000000" stroke-miterlimit="10" x1="1364.625" y1="459.828" x2="1695.553" y2="459.828"/>
	<line fill="none" stroke="#000000" stroke-miterlimit="10" x1="1364.625" y1="431.828" x2="1695.43" y2="181.981"/>
	<line fill="none" stroke="#000000" stroke-miterlimit="10" x1="1364.625" y1="491.828" x2="1695.43" y2="742.149"/>
	<line fill="none" stroke="#000000" stroke-miterlimit="10" x1="1364.625" y1="444.828" x2="1695.43" y2="275.343"/>
	<line fill="none" stroke="#000000" stroke-miterlimit="10" x1="1364.625" y1="453" x2="1695.43" y2="368.704"/>
	<line fill="none" stroke="#000000" stroke-miterlimit="10" x1="1364.625" y1="468.828" x2="1695.43" y2="555.427"/>
	<line fill="none" stroke="#000000" stroke-miterlimit="10" x1="1364.625" y1="479.5" x2="1695.43" y2="648.788"/>
	<g>
		<ellipse fill="none" stroke="#000000" stroke-miterlimit="10" cx="743.02" cy="47.086" rx="90.745" ry="35.914"/>
		<text transform="matrix(1 0 0 1 720.2134 56.9136)" font-size="34" style="font-family: 'Source Sans Pro', sans-serif;">atk</text>
	</g>
	<g>
		<ellipse fill="none" stroke="#000000" stroke-miterlimit="10" cx="951.651" cy="47.086" rx="90.745" ry="35.914"/>
		<text transform="matrix(1 0 0 1 928.4312 56.9141)" font-size="34" style="font-family: 'Source Sans Pro', sans-serif;">def</text>
	</g>
	<g>
		<ellipse fill="none" stroke="#000000" stroke-miterlimit="10" cx="1160.282" cy="47.086" rx="90.745" ry="35.914"/>
		<text transform="matrix(1 0 0 1 1111.6816 56.9136)" font-size="34" style="font-family: 'Source Sans Pro', sans-serif;">spcAtk</text>
	</g>
	<g>
		<ellipse fill="none" stroke="#000000" stroke-miterlimit="10" cx="1368.913" cy="47.086" rx="90.745" ry="35.914"/>
		<text transform="matrix(1 0 0 1 1319.4492 56.9136)" font-size="34" style="font-family: 'Source Sans Pro', sans-serif;">spcDef</text>
	</g>
	<g>
		<ellipse fill="none" stroke="#000000" stroke-miterlimit="10" cx="325.758" cy="47.086" rx="90.745" ry="35.914"/>
		<text transform="matrix(1 0 0 1 275.3765 56.9141)" font-size="34" style="font-family: 'Source Sans Pro', sans-serif;">pokeid</text>
	</g>
	<g>
		<ellipse fill="none" stroke="#000000" stroke-miterlimit="10" cx="534.389" cy="47.086" rx="90.745" ry="35.914"/>
		<text transform="matrix(1 0 0 1 515.0923 56.9141)" font-size="34" style="font-family: 'Source Sans Pro', sans-serif;">hp</text>
	</g>
	<g>
		<ellipse fill="none" stroke="#000000" stroke-miterlimit="10" cx="117.127" cy="47.086" rx="106.684" ry="35.914"/>
		<text transform="matrix(1 0 0 1 35.3359 56.9141)" font-size="34" style="font-family: 'Source Sans Pro', sans-serif;">poke name</text>
	</g>
	<g>
		<ellipse fill="none" stroke="#000000" stroke-miterlimit="10" cx="1577.544" cy="47.086" rx="90.745" ry="35.914"/>
		<text transform="matrix(1 0 0 1 1533.2813 56.9136)" font-size="34" style="font-family: 'Source Sans Pro', sans-serif;">speed</text>
	</g>
	<g>
		<ellipse fill="none" stroke="#000000" stroke-miterlimit="10" cx="1786.175" cy="47.086" rx="90.745" ry="35.914"/>
		<text transform="matrix(1 0 0 1 1740.3115 56.9136)" font-size="34" style="font-family: 'Source Sans Pro', sans-serif;">typeid</text>
	</g>
	<line fill="none" stroke="#000000" stroke-miterlimit="10" x1="987.5" y1="431.828" x2="1786.174" y2="83"/>
	<line fill="none" stroke="#000000" stroke-miterlimit="10" x1="819.5" y1="431.828" x2="117.125" y2="83"/>
	<line fill="none" stroke="#000000" stroke-miterlimit="10" x1="899" y1="431.828" x2="951.649" y2="83"/>
	<line fill="none" stroke="#000000" stroke-miterlimit="10" x1="876" y1="431.828" x2="743.019" y2="83"/>
	<line fill="none" stroke="#000000" stroke-miterlimit="10" x1="857" y1="431.057" x2="534.388" y2="83"/>
	<line fill="none" stroke="#000000" stroke-miterlimit="10" x1="841" y1="431.828" x2="325.757" y2="83"/>
	<line fill="none" stroke="#000000" stroke-miterlimit="10" x1="919" y1="431.057" x2="1160.281" y2="83"/>
	<line fill="none" stroke="#000000" stroke-miterlimit="10" x1="945" y1="431.057" x2="1368.912" y2="83"/>
	<line fill="none" stroke="#000000" stroke-miterlimit="10" x1="966" y1="431.828" x2="1577.543" y2="83"/>
</g>
<g id="Layer_2">
</g>
</svg>
